<?xml version="1.0" encoding="utf-8"?>
<!-- Generator: Adobe Illustrator 15.0.0, SVG Export Plug-In . SVG Version: 6.00 Build 0)  -->
<!DOCTYPE svg PUBLIC "-//W3C//DTD SVG 1.1//EN" "http://www.w3.org/Graphics/SVG/1.1/DTD/svg11.dtd">
<svg version="1.1" id="Layer_1" xmlns="http://www.w3.org/2000/svg" xmlns:xlink="http://www.w3.org/1999/xlink" x="0px" y="0px"
	 width="42.283px" height="34.418px" viewBox="0 0 42.283 34.418" enable-background="new 0 0 42.283 34.418" xml:space="preserve">
<g>
	<defs>
		<rect id="SVGID_1_" width="42.283" height="34.418"/>
	</defs>
	<clipPath id="SVGID_2_">
		<use xlink:href="#SVGID_1_"  overflow="visible"/>
	</clipPath>
	<path clip-path="url(#SVGID_2_)" fill="#E8E8E8" d="M18.178,30.793l-8.015-8.141c-0.765,0.213-1.572,0.329-2.405,0.329
		c-0.212,0-0.42-0.01-0.625-0.023l11.461,11.46l12.662-12.663l-2.081-2.081L18.178,30.793z"/>
	<path clip-path="url(#SVGID_2_)" fill="#E8E8E8" d="M18.224,20.804l5.892-6.19l-5.522-5.521l-2.236,2.234
		c0.26,0.84,0.4,1.73,0.4,2.654c0,1.377-0.311,2.681-0.865,3.849L18.224,20.804z"/>
	<path clip-path="url(#SVGID_2_)" fill="#E8E8E8" d="M15.228,18.997c-0.934,1.385-2.242,2.495-3.777,3.188l6.728,6.838
		l10.118-10.229l0.437-0.442l0.438-0.442L42.283,4.65L39.737,0L25.852,14.593l-0.428,0.45l-0.428,0.45l-6.863,7.211L15.228,18.997z"
		/>
	<path clip-path="url(#SVGID_2_)" fill="#E8E8E8" d="M9.136,21.608c0.241-0.044,0.478-0.1,0.712-0.165
		c0.223-0.063,0.441-0.136,0.656-0.218c1.642-0.624,3.013-1.786,3.904-3.273c0.116-0.193,0.223-0.393,0.324-0.596
		c0.101-0.213,0.196-0.429,0.28-0.651c0.318-0.849,0.503-1.765,0.503-2.725c0-0.56-0.064-1.106-0.177-1.634
		c-0.051-0.237-0.11-0.468-0.182-0.697c-0.07-0.219-0.149-0.434-0.236-0.644c-1.17-2.804-3.938-4.783-7.162-4.783
		C3.48,6.222,0,9.702,0,13.98c0,3.224,1.979,5.993,4.783,7.162c0.209,0.088,0.424,0.167,0.645,0.236
		c0.226,0.072,0.459,0.132,0.696,0.183c0.527,0.113,1.073,0.176,1.634,0.176C8.228,21.737,8.688,21.688,9.136,21.608"/>
</g>
</svg>
