<?xml version="1.0" encoding="utf-8"?>
<!-- Generator: Adobe Illustrator 15.0.0, SVG Export Plug-In . SVG Version: 6.00 Build 0)  -->
<!DOCTYPE svg PUBLIC "-//W3C//DTD SVG 1.1//EN" "http://www.w3.org/Graphics/SVG/1.1/DTD/svg11.dtd">
<svg version="1.1" id="Layer_1" xmlns="http://www.w3.org/2000/svg" xmlns:xlink="http://www.w3.org/1999/xlink" x="0px" y="0px"
	 width="23.119px" height="36.724px" viewBox="0 0 23.119 36.724" enable-background="new 0 0 23.119 36.724" xml:space="preserve">
<g>
	<defs>
		<rect id="SVGID_1_" y="0" width="23.119" height="36.724"/>
	</defs>
	<clipPath id="SVGID_2_">
		<use xlink:href="#SVGID_1_"  overflow="visible"/>
	</clipPath>
	<path clip-path="url(#SVGID_2_)" fill="#E8E8E8" d="M17.193,12.645c-0.668-2.921-3.213-4.423-5.801-4.423
		c-2.67,0-4.381,1.293-4.381,3.046c0,2.337,3.297,3.172,6.969,4.424c4.256,1.461,9.139,3.714,9.139,8.93
		c0,4.424-3.255,7.763-8.305,8.681v3.422h-5.8V33.26C4.465,32.342,1.335,29.212,0,24.788l5.592-1.502
		c0.626,2.63,2.963,5.091,6.593,5.091c3.13,0,4.758-1.544,4.758-3.505c0-2.963-3.965-3.673-8.096-5.133
		c-3.464-1.252-7.804-3.047-7.804-8.138c0-3.839,3.213-7.22,7.971-8.18V0h5.8v3.548c3.965,1.001,6.969,3.881,7.971,7.553
		L17.193,12.645z"/>
</g>
</svg>
