<?xml version="1.0" encoding="utf-8"?>
<!-- Generator: Adobe Illustrator 15.0.0, SVG Export Plug-In . SVG Version: 6.00 Build 0)  -->
<!DOCTYPE svg PUBLIC "-//W3C//DTD SVG 1.1//EN" "http://www.w3.org/Graphics/SVG/1.1/DTD/svg11.dtd">
<svg version="1.1" id="Layer_1" xmlns="http://www.w3.org/2000/svg" xmlns:xlink="http://www.w3.org/1999/xlink" x="0px" y="0px"
	 width="54.395px" height="32.347px" viewBox="0 0 54.395 32.347" enable-background="new 0 0 54.395 32.347" xml:space="preserve">
<g>
	<defs>
		<rect id="SVGID_1_" y="0" width="54.395" height="32.347"/>
	</defs>
	<clipPath id="SVGID_2_">
		<use xlink:href="#SVGID_1_"  overflow="visible"/>
	</clipPath>
	<path clip-path="url(#SVGID_2_)" fill-rule="evenodd" clip-rule="evenodd" fill="#E8E8E8" d="M54.395,26.137L49.229,0L30.757,4.557
		l1.095,2.861c-1.925-0.761-4.196-0.983-6.738-0.407c-0.064,0.014-0.129,0.028-0.192,0.042L14.79,9.349l-6.798,1.54
		c-0.87,0.196-1.362,1.09-1.091,1.993c0.27,0.9,1.202,1.474,2.073,1.278l6.212-1.407l0.237,0.788L1.05,16.797
		c-0.804,0.183-1.24,1.068-0.971,1.968c0.27,0.899,1.148,1.486,1.954,1.304l14.371-3.255l0.256,0.852L2.289,20.921
		c-0.803,0.185-1.241,1.069-0.972,1.97c0.271,0.897,1.15,1.485,1.954,1.303l14.372-3.254l0.232,0.773L3.503,24.97
		c-0.804,0.182-1.242,1.066-0.971,1.968c0.27,0.901,1.149,1.49,1.953,1.306l14.372-3.254l0.24,0.796L4.726,29.04
		c-0.804,0.185-1.243,1.067-0.971,1.97c0.27,0.898,1.149,1.486,1.952,1.304l21.903-4.96l3.189-0.723l-0.002-0.004
		c0.062-0.013,0.129-0.024,0.191-0.039c3.208-0.726,5.314-2.385,6.499-4.442l1.872,4.891L54.395,26.137z"/>
</g>
</svg>
